<svg width="186" height="166" viewBox="0 0 186 166" fill="none" xmlns="http://www.w3.org/2000/svg">
<path d="M93 5C74.8545 5.00172 57.1557 10.6287 42.3407 21.106C27.5257 31.5834 16.3231 46.3959 10.2754 63.5039C4.22775 80.612 3.63242 99.1741 8.57141 116.635C13.5104 134.095 23.7408 149.595 37.854 161H148.146C162.259 149.595 172.49 134.095 177.429 116.635C182.368 99.1741 181.772 80.612 175.725 63.5039C169.677 46.3959 158.474 31.5834 143.659 21.106C128.844 10.6287 111.146 5.00172 93 5V5Z" stroke="#FFF4DE" stroke-width="9" stroke-linecap="round" stroke-linejoin="round"/>
<path d="M15 53.75H100.8C102.284 53.7519 103.747 54.0923 105.079 54.7453C106.411 55.3984 107.577 56.3468 108.487 57.5184C109.397 58.6899 110.028 60.0538 110.332 61.506C110.635 62.9582 110.603 64.4605 110.238 65.8985C105.295 85.3985 94.677 99.224 78.375 107.375C58.875 117.125 36.1283 122 10.125 122" stroke="#FFF4DE" stroke-width="9" stroke-linecap="round" stroke-linejoin="round"/>
</svg>
